<svg width="70" height="70" viewBox="0 0 70 70" fill="none" xmlns="http://www.w3.org/2000/svg">
<path d="M37.2007 8.84668L35.0132 10.1657V23.0982H39.3882V12.5414L50.3257 18.5111V35.7486L37.2007 43.3282H32.8257L24.0757 38.2795L19.7007 35.7639V53.2376L21.8882 54.4976L24.0757 53.2376V40.7951L32.8257 45.8461V60.8239L35.0132 62.0861L37.2007 60.8239V48.3748L37.2094 48.3792V45.8636L37.2007 45.8592V45.8417L48.1382 39.5264V53.1654L50.3257 54.4254L52.5132 53.1589V17.3189L39.3969 10.1154L39.3882 10.1198V10.1023L37.2007 8.84668Z" fill="#FECB5B"/>
<path d="M19.7007 35.7871V53.2368L21.8882 54.4968V39.5343L32.8257 45.8496V60.823L35.0132 62.0852V44.5918L21.8838 37.0121L19.7007 35.7871ZM50.3257 38.259L48.1382 39.5277V53.1624L50.3257 54.4246V53.2499V38.259Z" fill="#F8B545"/>
<path d="M35.0132 24.417V24.4236L19.7007 33.2611L35.0132 42.0964L50.3257 33.2589V33.2523L35.0132 24.417Z" fill="#74C1E6"/>
<path d="M32.8257 11.3096L48.1382 19.6636V36.9471L32.8257 28.1118V11.3096Z" fill="#74C1E6"/>
<path d="M50.3257 35.7506V18.4256L48.1382 17.2334V34.4884L50.3257 35.7506Z" fill="#6FB7E6"/>
<path d="M50.3388 33.2324V35.748L35.0132 44.5965V42.0809L50.3388 33.2324Z" fill="#6FB7E6"/>
<path d="M19.6875 33.2197V35.7354L35.0131 44.586V42.0704L19.6875 33.2197Z" fill="#3A90CD"/>
<path d="M37.2007 8.75L35.0132 10.0056L39.3882 12.5388L50.3257 18.5084L52.5132 17.3163L37.2007 8.75Z" fill="#F8B545"/>
<path d="M35.0132 10.0098L32.8257 11.3201L37.2007 13.7045L48.1382 19.672L50.3257 18.4798L35.0132 10.0098Z" fill="#6FB7E6"/>
</svg>
