<svg width="50" height="50" viewBox="0 0 50 50" fill="none" xmlns="http://www.w3.org/2000/svg">
<path d="M23.7305 20.4205V23.6328H38.3789V20.4205C38.3814 19.9449 38.2898 19.4736 38.1093 19.0336C37.9288 18.5936 37.663 18.1936 37.3272 17.8568C36.9915 17.52 36.5924 17.2529 36.153 17.071C35.7136 16.8891 35.2425 16.7959 34.7669 16.7969H27.3974C25.389 16.7969 23.7305 18.4122 23.7305 20.4205Z" fill="black"/>
<path d="M40.918 25H21.2891V28.6133H40.918V25Z" fill="black"/>
<path d="M11.2305 14.2188C11.2305 11.7323 12.2182 9.34778 13.9763 7.58962C15.7345 5.83147 18.1191 4.84375 20.6055 4.84375C23.0919 4.84375 25.4764 5.83147 27.2346 7.58962C28.9928 9.34778 29.9805 11.7323 29.9805 14.2188V15.4297H32.1289V14.2188C32.1289 11.1625 30.9148 8.23151 28.7538 6.07045C26.5927 3.90939 23.6617 2.69531 20.6055 2.69531C17.5493 2.69531 14.6182 3.90939 12.4572 6.07045C10.2961 8.23151 9.08203 11.1625 9.08203 14.2188V47.2656H11.2305V14.2188ZM30.3711 32.3242V35.9375C30.3711 36.1188 30.4431 36.2927 30.5713 36.4209C30.6995 36.5491 30.8734 36.6211 31.0547 36.6211C31.236 36.6211 31.4099 36.5491 31.5381 36.4209C31.6663 36.2927 31.7383 36.1188 31.7383 35.9375V32.3242C31.7383 32.1429 31.6663 31.969 31.5381 31.8408C31.4099 31.7126 31.236 31.6406 31.0547 31.6406C30.8734 31.6406 30.6995 31.7126 30.5713 31.8408C30.4431 31.969 30.3711 32.1429 30.3711 32.3242ZM38.1836 32.3242V35.9375C38.1836 36.1188 38.2556 36.2927 38.3838 36.4209C38.512 36.5491 38.6859 36.6211 38.8672 36.6211C39.0485 36.6211 39.2224 36.5491 39.3506 36.4209C39.4788 36.2927 39.5508 36.1188 39.5508 35.9375V32.3242C39.5508 32.1429 39.4788 31.969 39.3506 31.8408C39.2224 31.7126 39.0485 31.6406 38.8672 31.6406C38.6859 31.6406 38.512 31.7126 38.3838 31.8408C38.2556 31.969 38.1836 32.1429 38.1836 32.3242ZM22.5586 32.3242V35.9375C22.5586 36.1188 22.6306 36.2927 22.7588 36.4209C22.887 36.5491 23.0609 36.6211 23.2422 36.6211C23.4235 36.6211 23.5974 36.5491 23.7256 36.4209C23.8538 36.2927 23.9258 36.1188 23.9258 35.9375V32.3242C23.9258 32.1429 23.8538 31.969 23.7256 31.8408C23.5974 31.7126 23.4235 31.6406 23.2422 31.6406C23.0609 31.6406 22.887 31.7126 22.7588 31.8408C22.6306 31.969 22.5586 32.1429 22.5586 32.3242ZM35.6445 39.8438V36.2305C35.6445 36.0492 35.5725 35.8753 35.4443 35.7471C35.3161 35.6189 35.1422 35.5469 34.9609 35.5469C34.7796 35.5469 34.6058 35.6189 34.4776 35.7471C34.3494 35.8753 34.2773 36.0492 34.2773 36.2305V39.8438C34.2773 40.0251 34.3494 40.1989 34.4776 40.3271C34.6058 40.4553 34.7796 40.5273 34.9609 40.5273C35.1422 40.5273 35.3161 40.4553 35.4443 40.3271C35.5725 40.1989 35.6445 40.0251 35.6445 39.8438ZM26.4648 36.2305V39.8438C26.4648 40.0251 26.5369 40.1989 26.6651 40.3271C26.7933 40.4553 26.9671 40.5273 27.1484 40.5273C27.3297 40.5273 27.5036 40.4553 27.6318 40.3271C27.76 40.1989 27.832 40.0251 27.832 39.8438V36.2305C27.832 36.0492 27.76 35.8753 27.6318 35.7471C27.5036 35.6189 27.3297 35.5469 27.1484 35.5469C26.9671 35.5469 26.7933 35.6189 26.6651 35.7471C26.5369 35.8753 26.4648 36.0492 26.4648 36.2305Z" fill="black"/>
</svg>
