<svg width="40" height="40" viewBox="0 0 40 40" fill="none" xmlns="http://www.w3.org/2000/svg">
<path d="M8.09919 30.5997L8.09895 30.5995C7.22622 29.9488 6.42561 28.9211 5.84282 27.7595C5.25998 26.5978 4.91675 25.3456 4.91675 24.2671V11.8671C4.91675 9.50785 6.67158 6.96225 8.89125 6.13562L8.89221 6.13526L17.2085 3.01875C17.2085 3.01872 17.2086 3.01869 17.2087 3.01866C17.9622 2.7371 18.9617 2.58789 19.9834 2.58789C21.0052 2.58789 22.0046 2.7371 22.7581 3.01866C22.7582 3.01869 22.7583 3.01872 22.7584 3.01875L31.0746 6.13526L31.0756 6.13562C33.2953 6.96225 35.0501 9.50785 35.0501 11.8671V24.2504C35.0501 25.3375 34.7067 26.5897 34.1242 27.7488C33.5417 28.9078 32.7411 29.9318 31.8679 30.5829L31.8676 30.5831L24.701 35.9331L24.7009 35.933L24.6948 35.9378C23.4121 36.9268 21.7241 37.4337 20.0001 37.4337C18.2775 37.4337 16.5853 36.9274 15.265 35.949C15.2648 35.9489 15.2646 35.9488 15.2645 35.9487L8.09919 30.5997ZM17.742 4.43194L17.7413 4.43219L9.42462 7.54885L9.42392 7.54912C8.59634 7.86068 7.8551 8.52296 7.32418 9.2911C6.79309 10.0595 6.43341 10.9902 6.43341 11.8837V24.2671C6.43341 25.1615 6.744 26.1897 7.201 27.1015C7.65788 28.0131 8.29337 28.8727 9.00094 29.401L9.00098 29.4011L16.1673 34.7508C17.2293 35.545 18.6283 35.9254 20.0022 35.9254C21.3762 35.9254 22.7784 35.5449 23.8479 34.752L23.8492 34.7511L31.0159 29.4011L31.0168 29.4004C31.7315 28.8643 32.367 28.0055 32.8223 27.0948C33.2776 26.1842 33.5834 25.1605 33.5834 24.2671V11.8671C33.5834 10.9809 33.223 10.0542 32.6926 9.28693C32.1621 8.51938 31.4224 7.85445 30.5977 7.53429L30.5977 7.53425L30.5922 7.53219L22.2755 4.41552L22.2756 4.41543L22.2665 4.41223C21.6283 4.187 20.8003 4.08363 20.0008 4.08581C19.2022 4.08799 18.3753 4.19563 17.742 4.43194Z" fill="#DB4444" stroke="#DB4444"/>
<path d="M17.413 21.0531L17.7666 21.4067L18.1201 21.0531L24.4035 14.7698C24.6915 14.4817 25.1749 14.4817 25.463 14.7698C25.7511 15.0578 25.7511 15.5413 25.463 15.8293L18.2963 22.996C18.1451 23.1473 17.9578 23.2162 17.7666 23.2162C17.5754 23.2162 17.3881 23.1473 17.2368 22.996L14.5535 20.3127C14.2654 20.0246 14.2654 19.5412 14.5535 19.2531C14.8415 18.965 15.3249 18.965 15.613 19.2531L17.413 21.0531Z" fill="#DB4444" stroke="#DB4444"/>
</svg>
