<svg width="40" height="40" viewBox="0 0 40 40" fill="none" xmlns="http://www.w3.org/2000/svg">
<g clip-path="url(#clip0_4821_519)">
<path d="M13.3334 25.0003C13.3334 23.1594 11.841 21.667 10.0001 21.667C8.15913 21.667 6.66675 23.1594 6.66675 25.0003V28.3337C6.66675 30.1746 8.15913 31.667 10.0001 31.667C11.841 31.667 13.3334 30.1746 13.3334 28.3337V25.0003Z" stroke="#DB4444" stroke-width="2" stroke-linecap="round" stroke-linejoin="round"/>
<path d="M33.3334 25.0003C33.3334 23.1594 31.841 21.667 30.0001 21.667C28.1591 21.667 26.6667 23.1594 26.6667 25.0003V28.3337C26.6667 30.1746 28.1591 31.667 30.0001 31.667C31.841 31.667 33.3334 30.1746 33.3334 28.3337V25.0003Z" stroke="#DB4444" stroke-width="2" stroke-linecap="round" stroke-linejoin="round"/>
<path d="M6.66675 25.0003V20.0003C6.66675 16.4641 8.07151 13.0727 10.572 10.5722C13.0725 8.07175 16.4639 6.66699 20.0001 6.66699C23.5363 6.66699 26.9277 8.07175 29.4282 10.5722C31.9287 13.0727 33.3334 16.4641 33.3334 20.0003V25.0003" stroke="#DB4444" stroke-width="2" stroke-linecap="round" stroke-linejoin="round"/>
<path d="M30 31.667C30 32.9931 28.9464 34.2648 27.0711 35.2025C25.1957 36.1402 22.6522 36.667 20 36.667" stroke="#DB4444" stroke-width="2" stroke-linecap="round" stroke-linejoin="round"/>
</g>
<defs>
<clipPath id="clip0_4821_519">
<rect width="40" height="40" fill="white"/>
</clipPath>
</defs>
</svg>
