<svg width="50" height="50" viewBox="0 0 50 50" fill="none" xmlns="http://www.w3.org/2000/svg">
<path d="M15.625 22.961L13.5859 5.9063C13.5472 5.57636 13.579 5.24194 13.6793 4.92522C13.7796 4.60851 13.9461 4.31674 14.1677 4.06925C14.3893 3.82177 14.661 3.62422 14.9648 3.48973C15.2686 3.35523 15.5975 3.28685 15.9297 3.28912H34.0859C34.4181 3.28685 34.747 3.35523 35.0508 3.48973C35.3546 3.62422 35.6263 3.82177 35.8479 4.06925C36.0696 4.31674 36.236 4.60851 36.3363 4.92522C36.4366 5.24194 36.4685 5.57636 36.4297 5.9063L34.375 22.961H15.625ZM16.625 45.6876L18.4219 40.2188H31.5625L33.3594 45.6876C33.3988 45.808 33.4084 45.9362 33.3872 46.0612C33.3661 46.1861 33.3148 46.304 33.2379 46.4048C33.161 46.5055 33.0608 46.586 32.9458 46.6393C32.8309 46.6927 32.7047 46.7173 32.5781 46.711H17.3672C17.2439 46.7109 17.1223 46.6816 17.0125 46.6256C16.9027 46.5695 16.8077 46.4882 16.7353 46.3884C16.6629 46.2886 16.6152 46.173 16.596 46.0512C16.5768 45.9294 16.5868 45.8048 16.625 45.6876ZM31.5625 40.1954C35.9375 38.8282 39.1406 33.9844 39.1406 28.1251H10.8594C10.8594 33.9532 14.0781 38.7969 18.4375 40.1641L31.5625 40.1954Z" stroke="#222222" stroke-width="3" stroke-miterlimit="10"/>
<path d="M38.25 22.9609H11.7422C10.3054 22.9609 9.14062 24.1239 9.14062 25.5586C9.14062 26.9932 10.3054 28.1563 11.7422 28.1563H38.25C39.6868 28.1563 40.8516 26.9932 40.8516 25.5586C40.8516 24.1239 39.6868 22.9609 38.25 22.9609Z" stroke="#222222" stroke-width="3" stroke-miterlimit="10"/>
</svg>
